<?xml version="1.0" encoding="utf-8"?>
<!-- Generator: Adobe Illustrator 16.0.4, SVG Export Plug-In . SVG Version: 6.00 Build 0)  -->
<!DOCTYPE svg PUBLIC "-//W3C//DTD SVG 1.1//EN" "http://www.w3.org/Graphics/SVG/1.1/DTD/svg11.dtd">
<svg version="1.1" id="Capa_1" xmlns="http://www.w3.org/2000/svg" xmlns:xlink="http://www.w3.org/1999/xlink" x="0px" y="0px"
	 width="511.625px" height="511.625px" viewBox="0 0 511.625 511.625" enable-background="new 0 0 511.625 511.625"
	 xml:space="preserve">
<g>
	<path fill="#E8A800" d="M505.918,267.239c-3.809-9.137-8.379-16.371-13.707-21.701L375.725,129.053
		c-2.854-2.856-6.281-5.52-10.279-7.994V27.415c0-7.616-2.662-14.092-7.994-19.417c-5.324-5.332-11.799-7.994-19.41-7.994H27.406
		c-7.611,0-14.084,2.663-19.414,7.994C2.663,13.326,0,19.799,0,27.415v383.72c0,7.609,2.663,14.078,7.992,19.402
		c5.33,5.332,11.803,7.994,19.414,7.994h155.318v45.684c0,7.613,2.662,14.088,7.992,19.414c5.327,5.33,11.8,7.994,19.414,7.994
		h274.091c7.609,0,14.084-2.664,19.41-7.994c5.332-5.326,7.994-11.801,7.994-19.414v-191.86
		C511.625,284.745,509.723,276.37,505.918,267.239z M365.446,170.449l85.369,85.364h-85.369V170.449L365.446,170.449z
		 M82.224,73.088c-2.474,0-4.615-0.903-6.423-2.712c-1.807-1.809-2.712-3.946-2.712-6.423V45.682c0-2.474,0.905-4.617,2.712-6.423
		c1.809-1.809,3.949-2.712,6.423-2.712h201.001c2.471,0,4.611,0.903,6.42,2.712c1.807,1.807,2.717,3.949,2.717,6.423v18.271
		c0,2.478-0.912,4.615-2.717,6.423c-1.809,1.809-3.949,2.712-6.428,2.712H82.224L82.224,73.088z M475.079,475.084H219.263V146.177
		h109.642v118.777c0,7.61,2.662,14.082,7.994,19.41c5.324,5.328,11.793,7.99,19.408,7.99h118.771V475.084L475.079,475.084z"/>
</g>
</svg>
